<svg xmlns="http://www.w3.org/2000/svg" xmlns:xlink="http://www.w3.org/1999/xlink" width="1920" zoomAndPan="magnify" viewBox="0 0 1440 1439.999935" height="1920" preserveAspectRatio="xMidYMid meet" version="1.0"><path fill="#282928" d="M 720 432 C 560.9375 432 432 560.9375 432 720 C 432 879.0625 560.9375 1008 720 1008 C 879.0625 1008 1008 879.0625 1008 720 C 1008 560.9375 879.0625 432 720 432 Z M 799.921875 622.597656 L 770.945312 622.597656 C 748.222656 622.597656 743.816406 633.398438 743.816406 649.238281 L 743.816406 684.171875 L 798.019531 684.171875 L 790.964844 738.894531 L 743.847656 738.894531 L 743.847656 879.292969 L 687.339844 879.292969 L 687.339844 738.894531 L 640.078125 738.894531 L 640.078125 684.171875 L 687.339844 684.171875 L 687.339844 643.824219 C 687.339844 596.996094 715.9375 571.476562 757.726562 571.476562 C 777.742188 571.476562 794.9375 572.976562 799.949219 573.636719 L 799.949219 622.570312 Z M 799.921875 622.597656 " fill-opacity="1" fill-rule="nonzero"/></svg>