<svg xmlns="http://www.w3.org/2000/svg" xmlns:xlink="http://www.w3.org/1999/xlink" width="1920" zoomAndPan="magnify" viewBox="0 0 1440 1439.999935" height="1920" preserveAspectRatio="xMidYMid meet" version="1.0"><defs><clipPath id="12e3d6d13a"><path d="M 432 432 L 1008 432 L 1008 1008 L 432 1008 Z M 432 432 " clip-rule="nonzero"/></clipPath></defs><g clip-path="url(#12e3d6d13a)"><path fill="#f03c2e" d="M 997.128906 694.351562 L 745.648438 442.871094 C 744.792969 442.011719 743.890625 441.199219 742.953125 440.425781 C 742.015625 439.65625 741.039062 438.933594 740.03125 438.257812 C 739.019531 437.582031 737.980469 436.957031 736.910156 436.386719 C 735.835938 435.8125 734.742188 435.292969 733.617188 434.828125 C 732.496094 434.363281 731.351562 433.957031 730.191406 433.601562 C 729.027344 433.25 727.851562 432.953125 726.660156 432.71875 C 725.46875 432.480469 724.269531 432.304688 723.058594 432.183594 C 721.851562 432.066406 720.640625 432.003906 719.425781 432.003906 C 718.210938 432.003906 716.996094 432.066406 715.789062 432.183594 C 714.578125 432.304688 713.378906 432.480469 712.1875 432.71875 C 710.996094 432.953125 709.820312 433.25 708.65625 433.601562 C 707.496094 433.957031 706.351562 434.363281 705.230469 434.828125 C 704.109375 435.292969 703.011719 435.8125 701.941406 436.386719 C 700.867188 436.957031 699.828125 437.582031 698.816406 438.257812 C 697.808594 438.933594 696.832031 439.65625 695.894531 440.425781 C 694.957031 441.199219 694.058594 442.011719 693.199219 442.871094 L 640.996094 495.070312 L 707.238281 561.3125 C 722.644531 555.910156 740.285156 559.601562 752.5625 571.878906 C 754.015625 573.335938 755.359375 574.886719 756.597656 576.53125 C 757.835938 578.175781 758.949219 579.898438 759.945312 581.699219 C 760.941406 583.5 761.808594 585.359375 762.542969 587.28125 C 763.277344 589.203125 763.875 591.167969 764.335938 593.175781 C 764.792969 595.179688 765.113281 597.207031 765.289062 599.257812 C 765.464844 601.308594 765.496094 603.359375 765.386719 605.414062 C 765.273438 607.46875 765.019531 609.507812 764.625 611.527344 C 764.230469 613.546875 763.695312 615.527344 763.019531 617.472656 L 826.867188 681.316406 C 842.308594 675.988281 860.128906 679.429688 872.460938 691.792969 C 873.484375 692.816406 874.453125 693.886719 875.371094 695.003906 C 876.289062 696.121094 877.148438 697.28125 877.953125 698.484375 C 878.757812 699.6875 879.5 700.925781 880.183594 702.199219 C 880.863281 703.476562 881.484375 704.78125 882.035156 706.117188 C 882.589844 707.453125 883.078125 708.8125 883.496094 710.199219 C 883.917969 711.582031 884.269531 712.984375 884.550781 714.402344 C 884.832031 715.820312 885.046875 717.25 885.1875 718.6875 C 885.328125 720.128906 885.402344 721.570312 885.402344 723.015625 C 885.402344 724.464844 885.332031 725.90625 885.1875 727.34375 C 885.046875 728.785156 884.835938 730.214844 884.554688 731.632812 C 884.269531 733.050781 883.921875 734.453125 883.5 735.835938 C 883.082031 737.21875 882.59375 738.582031 882.039062 739.917969 C 881.488281 741.253906 880.867188 742.558594 880.1875 743.832031 C 879.503906 745.109375 878.761719 746.347656 877.957031 747.550781 C 877.15625 748.753906 876.292969 749.914062 875.375 751.03125 C 874.460938 752.148438 873.488281 753.21875 872.464844 754.242188 C 871.441406 755.265625 870.371094 756.234375 869.253906 757.152344 C 868.136719 758.070312 866.976562 758.929688 865.773438 759.734375 C 864.570312 760.535156 863.332031 761.277344 862.054688 761.960938 C 860.78125 762.640625 859.472656 763.257812 858.136719 763.8125 C 856.800781 764.363281 855.441406 764.851562 854.058594 765.269531 C 852.671875 765.691406 851.269531 766.039062 849.851562 766.324219 C 848.433594 766.605469 847.003906 766.816406 845.566406 766.957031 C 844.125 767.097656 842.683594 767.167969 841.238281 767.167969 C 839.789062 767.167969 838.347656 767.097656 836.910156 766.953125 C 835.46875 766.8125 834.039062 766.597656 832.621094 766.316406 C 831.203125 766.03125 829.800781 765.679688 828.417969 765.261719 C 827.035156 764.839844 825.675781 764.351562 824.339844 763.800781 C 823.003906 763.246094 821.699219 762.625 820.421875 761.945312 C 819.148438 761.261719 817.910156 760.519531 816.707031 759.714844 C 815.503906 758.910156 814.34375 758.046875 813.226562 757.128906 C 812.109375 756.210938 811.039062 755.242188 810.019531 754.21875 C 797.058594 741.257812 793.855469 722.179688 800.40625 706.210938 L 740.863281 646.667969 L 740.863281 803.359375 C 745.210938 805.511719 749.113281 808.292969 752.5625 811.710938 C 753.585938 812.730469 754.554688 813.800781 755.472656 814.917969 C 756.386719 816.035156 757.25 817.195312 758.050781 818.398438 C 758.855469 819.601562 759.597656 820.839844 760.277344 822.113281 C 760.960938 823.390625 761.578125 824.695312 762.128906 826.03125 C 762.683594 827.367188 763.171875 828.726562 763.589844 830.109375 C 764.007812 831.492188 764.359375 832.894531 764.640625 834.308594 C 764.925781 835.726562 765.136719 837.15625 765.277344 838.59375 C 765.417969 840.035156 765.492188 841.476562 765.492188 842.921875 C 765.492188 844.367188 765.417969 845.808594 765.277344 847.25 C 765.136719 848.6875 764.925781 850.117188 764.640625 851.535156 C 764.359375 852.949219 764.007812 854.351562 763.589844 855.734375 C 763.171875 857.117188 762.683594 858.476562 762.128906 859.8125 C 761.578125 861.148438 760.960938 862.453125 760.277344 863.730469 C 759.597656 865.003906 758.855469 866.242188 758.050781 867.445312 C 757.25 868.648438 756.386719 869.808594 755.472656 870.925781 C 754.554688 872.042969 753.585938 873.113281 752.5625 874.132812 C 751.539062 875.15625 750.46875 876.125 749.351562 877.042969 C 748.234375 877.960938 747.074219 878.820312 745.871094 879.625 C 744.671875 880.425781 743.433594 881.167969 742.15625 881.851562 C 740.882812 882.53125 739.578125 883.148438 738.242188 883.703125 C 736.90625 884.253906 735.546875 884.742188 734.164062 885.160156 C 732.78125 885.582031 731.378906 885.933594 729.960938 886.214844 C 728.542969 886.496094 727.113281 886.707031 725.675781 886.851562 C 724.238281 886.992188 722.796875 887.0625 721.351562 887.0625 C 719.90625 887.0625 718.460938 886.992188 717.023438 886.851562 C 715.585938 886.707031 714.15625 886.496094 712.738281 886.214844 C 711.320312 885.933594 709.921875 885.582031 708.535156 885.160156 C 707.152344 884.742188 705.792969 884.253906 704.457031 883.703125 C 703.121094 883.148438 701.816406 882.53125 700.542969 881.851562 C 699.265625 881.167969 698.027344 880.425781 696.828125 879.625 C 695.625 878.820312 694.464844 877.960938 693.347656 877.042969 C 692.230469 876.125 691.160156 875.15625 690.136719 874.132812 C 689.113281 873.113281 688.144531 872.042969 687.226562 870.925781 C 686.308594 869.808594 685.445312 868.648438 684.640625 867.449219 C 683.835938 866.246094 683.09375 865.007812 682.410156 863.734375 C 681.730469 862.457031 681.113281 861.152344 680.558594 859.816406 C 680.003906 858.480469 679.515625 857.121094 679.097656 855.738281 C 678.675781 854.355469 678.324219 852.953125 678.042969 851.535156 C 677.757812 850.117188 677.546875 848.6875 677.40625 847.25 C 677.265625 845.808594 677.191406 844.367188 677.191406 842.921875 C 677.191406 841.476562 677.265625 840.035156 677.40625 838.59375 C 677.546875 837.15625 677.757812 835.726562 678.042969 834.308594 C 678.324219 832.890625 678.675781 831.488281 679.097656 830.105469 C 679.515625 828.722656 680.003906 827.363281 680.558594 826.027344 C 681.113281 824.691406 681.730469 823.386719 682.410156 822.109375 C 683.09375 820.835938 683.835938 819.597656 684.640625 818.394531 C 685.445312 817.195312 686.308594 816.035156 687.226562 814.917969 C 688.144531 813.800781 689.113281 812.730469 690.136719 811.710938 C 694.402344 807.460938 699.136719 804.238281 704.59375 802.078125 L 704.59375 643.933594 C 699.335938 641.773438 694.402344 638.585938 690.136719 634.300781 C 688.597656 632.761719 687.179688 631.117188 685.878906 629.371094 C 684.582031 627.621094 683.421875 625.785156 682.394531 623.863281 C 681.371094 621.941406 680.492188 619.957031 679.761719 617.902344 C 679.03125 615.851562 678.453125 613.757812 678.035156 611.621094 C 677.613281 609.484375 677.351562 607.328125 677.25 605.152344 C 677.148438 602.976562 677.207031 600.804688 677.429688 598.640625 C 677.648438 596.472656 678.027344 594.332031 678.566406 592.222656 C 679.101562 590.113281 679.792969 588.050781 680.632812 586.042969 L 615.292969 520.738281 L 442.855469 693 C 441.992188 693.859375 441.179688 694.757812 440.40625 695.695312 C 439.636719 696.636719 438.910156 697.609375 438.234375 698.621094 C 437.5625 699.632812 436.9375 700.671875 436.363281 701.742188 C 435.789062 702.816406 435.269531 703.914062 434.804688 705.035156 C 434.339844 706.15625 433.929688 707.300781 433.578125 708.464844 C 433.222656 709.625 432.929688 710.804688 432.691406 711.996094 C 432.453125 713.1875 432.277344 714.386719 432.15625 715.597656 C 432.039062 716.808594 431.976562 718.019531 431.976562 719.234375 C 431.976562 720.449219 432.039062 721.664062 432.15625 722.871094 C 432.277344 724.082031 432.453125 725.28125 432.691406 726.472656 C 432.929688 727.667969 433.222656 728.84375 433.578125 730.007812 C 433.929688 731.167969 434.339844 732.3125 434.804688 733.433594 C 435.269531 734.558594 435.789062 735.65625 436.363281 736.726562 C 436.9375 737.796875 437.5625 738.839844 438.234375 739.847656 C 438.910156 740.859375 439.636719 741.832031 440.40625 742.773438 C 441.179688 743.710938 441.992188 744.609375 442.855469 745.46875 L 694.351562 996.929688 C 695.207031 997.789062 696.109375 998.605469 697.046875 999.375 C 697.984375 1000.144531 698.960938 1000.867188 699.96875 1001.542969 C 700.980469 1002.21875 702.019531 1002.84375 703.089844 1003.414062 C 704.164062 1003.988281 705.257812 1004.507812 706.382812 1004.972656 C 707.503906 1005.4375 708.644531 1005.847656 709.808594 1006.199219 C 710.972656 1006.550781 712.148438 1006.847656 713.339844 1007.082031 C 714.53125 1007.320312 715.730469 1007.5 716.941406 1007.617188 C 718.148438 1007.738281 719.359375 1007.796875 720.574219 1007.796875 C 721.789062 1007.796875 723.003906 1007.738281 724.210938 1007.617188 C 725.421875 1007.5 726.621094 1007.320312 727.8125 1007.082031 C 729.003906 1006.847656 730.179688 1006.550781 731.34375 1006.199219 C 732.503906 1005.847656 733.648438 1005.4375 734.769531 1004.972656 C 735.890625 1004.507812 736.988281 1003.988281 738.058594 1003.414062 C 739.132812 1002.84375 740.171875 1002.21875 741.183594 1001.542969 C 742.191406 1000.867188 743.167969 1000.144531 744.105469 999.375 C 745.042969 998.605469 745.941406 997.789062 746.800781 996.929688 L 997.128906 747 C 997.988281 746.140625 998.804688 745.242188 999.574219 744.304688 C 1000.347656 743.363281 1001.070312 742.390625 1001.746094 741.378906 C 1002.421875 740.367188 1003.046875 739.328125 1003.617188 738.257812 C 1004.191406 737.183594 1004.710938 736.085938 1005.175781 734.964844 C 1005.644531 733.84375 1006.050781 732.699219 1006.40625 731.535156 C 1006.757812 730.375 1007.054688 729.195312 1007.289062 728.003906 C 1007.527344 726.8125 1007.707031 725.613281 1007.824219 724.402344 C 1007.945312 723.191406 1008.003906 721.980469 1008.003906 720.765625 C 1008.003906 719.550781 1007.945312 718.335938 1007.824219 717.128906 C 1007.707031 715.917969 1007.527344 714.71875 1007.289062 713.527344 C 1007.054688 712.332031 1006.757812 711.15625 1006.40625 709.992188 C 1006.050781 708.832031 1005.644531 707.6875 1005.175781 706.566406 C 1004.710938 705.441406 1004.191406 704.34375 1003.617188 703.273438 C 1003.046875 702.203125 1002.421875 701.160156 1001.746094 700.152344 C 1001.070312 699.140625 1000.347656 698.164062 999.574219 697.226562 C 998.804688 696.289062 997.988281 695.390625 997.128906 694.53125 " fill-opacity="1" fill-rule="nonzero"/></g></svg>