<svg xmlns="http://www.w3.org/2000/svg" xmlns:xlink="http://www.w3.org/1999/xlink" width="1920" zoomAndPan="magnify" viewBox="0 0 1440 1439.999935" height="1920" preserveAspectRatio="xMidYMid meet" version="1.0"><path fill="#282928" d="M 720 432 C 560.9375 432 432 560.9375 432 720 C 432 879.0625 560.9375 1008 720 1008 C 879.0625 1008 1008 879.0625 1008 720 C 1008 560.9375 879.0625 432 720 432 Z M 775.007812 889.746094 C 766.195312 891.445312 763.054688 886.03125 763.054688 881.367188 C 763.054688 875.636719 763.285156 856.859375 763.285156 833.53125 C 763.285156 817.257812 757.726562 806.628906 751.507812 801.246094 C 790.1875 796.925781 830.824219 782.179688 830.824219 715.191406 C 830.824219 696.152344 824.113281 680.574219 812.964844 668.390625 C 814.753906 663.984375 820.714844 646.242188 811.238281 622.253906 C 811.238281 622.253906 796.695312 617.558594 763.515625 640.136719 C 749.636719 636.277344 734.773438 634.347656 720.027344 634.261719 C 705.253906 634.347656 690.394531 636.277344 676.539062 640.136719 C 643.363281 617.585938 628.789062 622.253906 628.789062 622.253906 C 619.34375 646.273438 625.304688 663.984375 627.089844 668.390625 C 615.972656 680.574219 609.207031 696.152344 609.207031 715.191406 C 609.207031 782.007812 649.757812 796.953125 688.320312 801.359375 C 683.367188 805.707031 678.875 813.398438 677.289062 824.660156 C 667.382812 829.125 642.238281 836.8125 626.746094 810.171875 C 626.746094 810.171875 617.585938 793.441406 600.164062 792.203125 C 600.164062 792.203125 583.199219 791.972656 598.980469 802.800781 C 598.980469 802.800781 610.359375 808.15625 618.25 828.316406 C 618.25 828.316406 628.445312 862.242188 676.769531 851.703125 C 676.859375 866.246094 677 877.21875 677 881.367188 C 677 885.972656 673.832031 891.359375 665.136719 889.777344 C 596.101562 866.707031 546.335938 801.359375 546.335938 724.320312 C 546.335938 627.984375 624.097656 549.9375 720.027344 549.9375 C 815.960938 549.9375 893.722656 628.011719 893.722656 724.320312 C 893.722656 801.332031 844.011719 866.648438 775.035156 889.746094 Z M 775.007812 889.746094 " fill-opacity="1" fill-rule="nonzero"/></svg>