<svg xmlns="http://www.w3.org/2000/svg" xmlns:xlink="http://www.w3.org/1999/xlink" width="500" zoomAndPan="magnify" viewBox="0 0 375 374.999991" height="500" preserveAspectRatio="xMidYMid meet" version="1.0"><defs><clipPath id="8c4edbeb83"><path d="M 98.808594 123.199219 L 276.558594 123.199219 L 276.558594 251.449219 L 98.808594 251.449219 Z M 98.808594 123.199219 " clip-rule="nonzero"/></clipPath></defs><g clip-path="url(#8c4edbeb83)"><path fill="#eff612" d="M 132.5 128.042969 C 128.730469 128.042969 125.667969 131.082031 125.667969 134.835938 L 125.667969 209.171875 L 104.898438 233.832031 C 104.097656 234.792969 103.648438 236.011719 103.648438 237.257812 L 103.648438 240.269531 C 103.648438 243.765625 106.507812 246.601562 110.019531 246.601562 L 265.101562 246.601562 C 268.613281 246.601562 271.476562 243.765625 271.476562 240.269531 L 271.476562 237.257812 C 271.476562 236.011719 271.027344 234.792969 270.222656 233.820312 L 249.453125 209.171875 L 249.453125 134.835938 C 249.453125 131.082031 246.390625 128.042969 242.621094 128.042969 Z M 265.101562 251.480469 L 110.019531 251.480469 C 103.808594 251.480469 98.746094 246.449219 98.746094 240.269531 L 98.746094 237.257812 C 98.746094 234.867188 99.597656 232.535156 101.148438 230.699219 L 120.769531 207.390625 L 120.769531 134.835938 C 120.769531 128.398438 126.03125 123.167969 132.5 123.167969 L 242.621094 123.167969 C 249.089844 123.167969 254.355469 128.398438 254.355469 134.835938 L 254.355469 207.390625 L 273.972656 230.6875 C 275.523438 232.535156 276.375 234.867188 276.375 237.257812 L 276.375 240.269531 C 276.375 246.449219 271.3125 251.480469 265.101562 251.480469 " fill-opacity="1" fill-rule="nonzero"/></g><path fill="#eff612" d="M 251.902344 210.714844 L 123.21875 210.714844 L 123.21875 205.839844 L 251.902344 205.839844 L 251.902344 210.714844 " fill-opacity="1" fill-rule="nonzero"/><path fill="#eff612" d="M 273.925781 236.867188 L 205.160156 236.867188 L 205.160156 231.992188 L 273.925781 231.992188 L 273.925781 236.867188 " fill-opacity="1" fill-rule="nonzero"/><path fill="#eff612" d="M 169.960938 236.867188 L 101.195312 236.867188 L 101.195312 231.992188 L 169.960938 231.992188 L 169.960938 236.867188 " fill-opacity="1" fill-rule="nonzero"/><path fill="#eff612" d="M 251.902344 141.246094 L 123.21875 141.246094 L 123.21875 136.367188 L 251.902344 136.367188 L 251.902344 141.246094 " fill-opacity="1" fill-rule="nonzero"/><path fill="#eff612" d="M 171.328125 226.867188 L 171.070312 227.183594 L 173.121094 237.9375 C 173.148438 238.050781 173.253906 238.144531 173.386719 238.144531 L 201.734375 238.144531 C 201.871094 238.144531 201.972656 238.050781 202.003906 237.9375 L 204.050781 227.183594 L 203.792969 226.867188 Z M 201.734375 243.023438 L 173.386719 243.023438 C 170.910156 243.023438 168.773438 241.261719 168.316406 238.851562 L 166.257812 228.097656 C 165.960938 226.59375 166.363281 225.039062 167.347656 223.859375 C 168.335938 222.679688 169.777344 221.992188 171.328125 221.992188 L 203.792969 221.992188 C 205.34375 221.992188 206.789062 222.679688 207.773438 223.859375 C 208.761719 225.039062 209.160156 226.59375 208.867188 228.097656 L 206.808594 238.839844 C 206.347656 241.261719 204.214844 243.023438 201.734375 243.023438 " fill-opacity="1" fill-rule="nonzero"/><path fill="#eff612" d="M 160.027344 172.800781 L 160.035156 172.800781 C 160.035156 172.800781 160.035156 172.800781 160.027344 172.800781 Z M 171.75 191.152344 C 171.101562 191.152344 170.457031 190.894531 169.96875 190.390625 L 156.464844 176.152344 C 155.089844 174.695312 155.089844 172.417969 156.464844 170.960938 L 169.96875 156.722656 C 170.910156 155.742188 172.449219 155.695312 173.433594 156.617188 C 174.421875 157.542969 174.46875 159.085938 173.539062 160.066406 L 160.746094 173.550781 L 173.539062 187.039062 C 174.46875 188.019531 174.421875 189.5625 173.433594 190.484375 C 172.964844 190.933594 172.355469 191.152344 171.75 191.152344 " fill-opacity="1" fill-rule="nonzero"/><path fill="#eff612" d="M 215.085938 172.800781 Z M 215.085938 174.304688 L 215.113281 174.304688 Z M 203.371094 191.152344 C 202.769531 191.152344 202.15625 190.933594 201.6875 190.484375 C 200.703125 189.5625 200.652344 188.019531 201.582031 187.039062 L 214.378906 173.550781 L 201.582031 160.066406 C 200.652344 159.085938 200.703125 157.542969 201.6875 156.617188 C 202.671875 155.695312 204.214844 155.742188 205.152344 156.722656 L 218.65625 170.953125 C 220.035156 172.417969 220.035156 174.695312 218.644531 176.152344 L 205.152344 190.390625 C 204.664062 190.894531 204.023438 191.152344 203.371094 191.152344 " fill-opacity="1" fill-rule="nonzero"/><path fill="#eff612" d="M 182.71875 195.808594 C 182.527344 195.808594 182.324219 195.789062 182.132812 195.742188 C 180.8125 195.417969 180.011719 194.105469 180.324219 192.789062 L 190.03125 153.160156 C 190.347656 151.847656 191.6875 151.046875 192.988281 151.371094 C 194.308594 151.683594 195.113281 153 194.796875 154.3125 L 185.09375 193.953125 C 184.824219 195.058594 183.820312 195.808594 182.71875 195.808594 " fill-opacity="1" fill-rule="nonzero"/></svg>