<svg xmlns="http://www.w3.org/2000/svg" xmlns:xlink="http://www.w3.org/1999/xlink" width="1920" zoomAndPan="magnify" viewBox="0 0 1440 1439.999935" height="1920" preserveAspectRatio="xMidYMid meet" version="1.0"><defs><clipPath id="85dfcebc20"><path d="M 432 432 L 1008 432 L 1008 1008 L 432 1008 Z M 432 432 " clip-rule="nonzero"/></clipPath></defs><g clip-path="url(#85dfcebc20)"><path fill="#282928" d="M 772.933594 728.0625 C 772.933594 757.296875 749.230469 780.96875 720.027344 780.96875 C 690.824219 780.96875 667.09375 757.265625 667.09375 728.0625 C 667.09375 698.859375 690.796875 675.160156 720.027344 675.160156 C 749.261719 675.160156 772.933594 698.859375 772.933594 728.0625 Z M 849.253906 663.898438 C 850.03125 680.628906 850.175781 685.671875 850.175781 728.0625 C 850.175781 770.457031 850.003906 775.46875 849.253906 792.203125 C 848.5625 807.667969 845.972656 816.078125 843.78125 821.691406 C 840.902344 829.09375 837.476562 834.394531 831.917969 839.953125 C 826.359375 845.511719 821.058594 848.9375 813.65625 851.816406 C 808.070312 854.007812 799.660156 856.570312 784.167969 857.289062 C 767.433594 858.039062 762.394531 858.210938 720 858.210938 C 677.605469 858.210938 672.59375 858.039062 655.832031 857.289062 C 640.367188 856.570312 631.957031 854.007812 626.34375 851.816406 C 618.941406 848.9375 613.640625 845.511719 608.082031 839.953125 C 602.523438 834.394531 599.097656 829.09375 596.21875 821.691406 C 594.058594 816.105469 591.464844 807.695312 590.746094 792.203125 C 589.996094 775.46875 589.824219 770.429688 589.824219 728.0625 C 589.824219 685.699219 589.996094 680.660156 590.746094 663.898438 C 591.464844 648.433594 594.027344 640.023438 596.21875 634.40625 C 599.097656 627.003906 602.523438 621.707031 608.082031 616.148438 C 613.640625 610.589844 618.941406 607.160156 626.34375 604.28125 C 631.929688 602.121094 640.339844 599.53125 655.832031 598.808594 C 672.566406 598.03125 677.605469 597.886719 720 597.886719 C 762.394531 597.886719 767.40625 598.0625 784.167969 598.808594 C 799.632812 599.53125 808.042969 602.09375 813.65625 604.28125 C 821.058594 607.160156 826.359375 610.589844 831.917969 616.148438 C 837.476562 621.707031 840.902344 627.003906 843.78125 634.40625 C 845.972656 639.992188 848.535156 648.402344 849.253906 663.898438 Z M 801.5625 728.0625 C 801.5625 683.050781 765.070312 646.53125 720.027344 646.53125 C 674.984375 646.53125 638.496094 683.019531 638.496094 728.0625 C 638.496094 773.105469 674.984375 809.597656 720.027344 809.597656 C 765.070312 809.597656 801.5625 773.105469 801.5625 728.0625 Z M 823.824219 643.304688 C 823.824219 632.792969 815.300781 624.269531 804.757812 624.269531 C 794.21875 624.269531 785.722656 632.792969 785.722656 643.304688 C 785.722656 653.816406 794.246094 662.371094 804.757812 662.371094 C 815.269531 662.371094 823.824219 653.847656 823.824219 643.304688 Z M 1008.027344 720 C 1008.027344 879.0625 879.089844 1008 720.027344 1008 C 560.964844 1008 432 879.0625 432 720 C 432 560.9375 560.9375 432 720 432 C 879.0625 432 1008 560.9375 1008 720 Z M 878.804688 728.0625 C 878.804688 684.949219 878.628906 679.535156 877.851562 662.601562 C 877.074219 645.695312 874.398438 634.175781 870.480469 624.066406 C 866.417969 613.640625 861.003906 604.769531 852.164062 595.957031 C 843.320312 587.144531 834.480469 581.703125 824.054688 577.640625 C 813.945312 573.726562 802.425781 571.046875 785.519531 570.269531 C 768.585938 569.492188 763.171875 569.316406 720.058594 569.316406 C 676.945312 569.316406 671.53125 569.492188 654.59375 570.269531 C 637.691406 571.046875 626.167969 573.726562 616.0625 577.640625 C 605.636719 581.703125 596.765625 587.117188 587.953125 595.957031 C 579.140625 604.769531 573.695312 613.640625 569.636719 624.066406 C 565.71875 634.175781 563.011719 645.695312 562.261719 662.601562 C 561.484375 679.535156 561.3125 684.949219 561.3125 728.0625 C 561.3125 771.175781 561.484375 776.59375 562.261719 793.527344 C 563.039062 810.433594 565.71875 821.953125 569.636719 832.0625 C 573.695312 842.484375 579.109375 851.355469 587.953125 860.167969 C 596.765625 868.980469 605.636719 874.425781 616.0625 878.484375 C 626.167969 882.402344 637.691406 885.082031 654.59375 885.859375 C 671.53125 886.636719 676.945312 886.808594 720.058594 886.808594 C 763.171875 886.808594 768.585938 886.636719 785.519531 885.859375 C 802.425781 885.082031 813.945312 882.402344 824.054688 878.484375 C 834.480469 874.425781 843.351562 869.011719 852.164062 860.167969 C 860.976562 851.328125 866.417969 842.484375 870.480469 832.0625 C 874.398438 821.953125 877.074219 810.433594 877.851562 793.527344 C 878.628906 776.59375 878.804688 771.175781 878.804688 728.0625 Z M 878.804688 728.0625 " fill-opacity="1" fill-rule="nonzero"/></g></svg>