<svg xmlns="http://www.w3.org/2000/svg" xmlns:xlink="http://www.w3.org/1999/xlink" width="1920" zoomAndPan="magnify" viewBox="0 0 1440 1439.999935" height="1920" preserveAspectRatio="xMidYMid meet" version="1.0"><path fill="#282928" d="M 720 432 C 560.9375 432 432 560.9375 432 720 C 432 879.0625 560.9375 1008 720 1008 C 879.0625 1008 1008 879.0625 1008 720 C 1008 560.9375 879.0625 432 720 432 Z M 633.082031 861.175781 L 572.542969 861.175781 L 572.542969 669.371094 L 633.082031 669.371094 Z M 601.257812 645.378906 L 600.824219 645.378906 C 578.910156 645.378906 564.710938 630.71875 564.710938 612.113281 C 564.710938 593.511719 579.339844 578.824219 601.691406 578.824219 C 624.039062 578.824219 637.746094 593.136719 638.207031 612.085938 C 638.207031 630.664062 624.039062 645.378906 601.285156 645.378906 Z M 875.289062 861.175781 L 806.628906 861.175781 L 806.628906 761.902344 C 806.628906 735.925781 795.886719 718.183594 772.273438 718.183594 C 754.214844 718.183594 744.164062 730.167969 739.496094 741.6875 C 737.742188 745.832031 738.027344 751.59375 738.027344 757.355469 L 738.027344 861.148438 L 670.03125 861.148438 C 670.03125 861.148438 670.894531 685.324219 670.03125 669.339844 L 738.027344 669.339844 L 738.027344 699.4375 C 742.03125 686.273438 763.777344 667.496094 798.453125 667.496094 C 841.476562 667.496094 875.289062 695.089844 875.289062 754.503906 Z M 875.289062 861.175781 " fill-opacity="1" fill-rule="nonzero"/></svg>