<svg xmlns="http://www.w3.org/2000/svg" xmlns:xlink="http://www.w3.org/1999/xlink" width="1920" zoomAndPan="magnify" viewBox="0 0 1440 1439.999935" height="1920" preserveAspectRatio="xMidYMid meet" version="1.0"><defs><clipPath id="1ada6ba4f7"><path d="M 872 748 L 1007 748 L 1007 1002.960938 L 872 1002.960938 Z M 872 748 " clip-rule="nonzero"/></clipPath><clipPath id="37221e1139"><path d="M 482 436.710938 L 739 436.710938 L 739 552 L 482 552 Z M 482 436.710938 " clip-rule="nonzero"/></clipPath></defs><g clip-path="url(#1ada6ba4f7)"><path fill="#282928" d="M 1004.683594 939.710938 L 950.128906 748.882812 L 939.894531 782.496094 L 951.261719 822.257812 L 927.789062 822.257812 L 921.980469 841.324219 L 956.707031 841.324219 L 986.332031 944.925781 C 986.457031 945.347656 986.554688 945.765625 986.640625 946.183594 L 891.6875 946.183594 C 881.167969 946.183594 872.609375 954.734375 872.609375 965.25 L 872.609375 984.316406 C 872.609375 994.832031 881.167969 1003.382812 891.6875 1003.382812 L 987.066406 1003.382812 C 997.589844 1003.382812 1006.144531 994.832031 1006.144531 984.316406 L 1006.144531 950.1875 C 1006.144531 946.660156 1005.648438 943.144531 1004.683594 939.710938 Z M 1004.683594 939.710938 " fill-opacity="1" fill-rule="nonzero"/></g><path fill="#282928" d="M 433.855469 641.125 C 433.855469 651.640625 442.410156 660.191406 452.933594 660.191406 L 452.933594 622.058594 C 442.410156 622.058594 433.855469 630.621094 433.855469 641.125 Z M 433.855469 641.125 " fill-opacity="1" fill-rule="nonzero"/><path fill="#282928" d="M 468.363281 519.390625 L 467.257812 519.839844 C 446.96875 527.941406 433.855469 547.304688 433.855469 569.152344 C 433.855469 577.351562 435.792969 585.566406 439.464844 592.898438 L 444.957031 603.871094 C 447.53125 603.316406 450.195312 603.003906 452.933594 603.003906 L 453.695312 603.003906 C 456.898438 580.792969 471.042969 562.125 490.523438 552.613281 Z M 468.363281 519.390625 " fill-opacity="1" fill-rule="nonzero"/><path fill="#282928" d="M 557.851562 698.320312 C 563.117188 698.320312 567.390625 694.050781 567.390625 688.789062 L 567.390625 631.59375 C 567.390625 626.332031 563.117188 622.058594 557.851562 622.058594 L 481.546875 622.058594 C 476.28125 622.058594 472.007812 626.332031 472.007812 631.59375 L 472.007812 688.789062 C 472.007812 694.050781 476.28125 698.320312 481.546875 698.320312 Z M 483.558594 663.449219 C 490.445312 649.6875 504.292969 641.125 519.699219 641.125 C 535.101562 641.125 548.953125 649.675781 555.839844 663.449219 L 556.839844 665.460938 L 539.777344 673.996094 L 538.773438 671.984375 C 535.140625 664.710938 527.835938 660.199219 519.699219 660.199219 C 511.5625 660.199219 504.257812 664.71875 500.621094 671.984375 L 499.621094 673.996094 L 482.558594 665.460938 Z M 483.558594 663.449219 " fill-opacity="1" fill-rule="nonzero"/><path fill="#282928" d="M 716.726562 716.652344 C 714.707031 717.109375 712.628906 717.386719 710.460938 717.386719 L 634.15625 717.386719 C 618.378906 717.386719 605.542969 704.554688 605.542969 688.789062 L 605.542969 660.191406 L 586.464844 660.191406 L 586.464844 688.789062 C 586.464844 704.554688 573.628906 717.386719 557.851562 717.386719 L 481.546875 717.386719 C 479.390625 717.386719 477.300781 717.101562 475.28125 716.652344 C 487.984375 771.589844 537.230469 812.714844 596.003906 812.714844 C 654.777344 812.714844 704.023438 771.589844 716.726562 716.652344 Z M 567.390625 755.519531 L 612.828125 755.519531 C 622.347656 755.519531 630.914062 750.226562 635.167969 741.726562 L 652.230469 750.257812 C 644.714844 765.261719 629.617188 774.59375 612.828125 774.59375 L 567.390625 774.59375 Z M 567.390625 755.519531 " fill-opacity="1" fill-rule="nonzero"/><path fill="#282928" d="M 605.542969 641.125 L 605.542969 631.59375 C 605.542969 615.824219 618.378906 602.992188 634.15625 602.992188 L 710.460938 602.992188 C 713.523438 602.992188 716.421875 603.605469 719.1875 604.5 C 715.34375 582.050781 695.859375 564.863281 672.308594 564.863281 L 519.699219 564.863281 C 496.160156 564.863281 476.664062 582.039062 472.820312 604.5 C 475.585938 603.605469 478.484375 602.992188 481.546875 602.992188 L 557.851562 602.992188 C 573.628906 602.992188 586.464844 615.824219 586.464844 631.59375 L 586.464844 641.125 Z M 605.542969 641.125 " fill-opacity="1" fill-rule="nonzero"/><g clip-path="url(#37221e1139)"><path fill="#282928" d="M 519.699219 545.796875 L 672.308594 545.796875 C 681.695312 545.796875 690.632812 547.761719 698.738281 551.277344 C 721.878906 539.398438 737.214844 516.28125 738.914062 490.355469 L 683.839844 499.523438 L 674.941406 455.042969 L 617.710938 483.644531 L 608.328125 436.710938 L 538.773438 476.4375 L 538.773438 445.511719 C 513.070312 457.761719 492.859375 479.742188 482.691406 506.503906 L 509.484375 546.664062 C 512.820312 546.148438 516.21875 545.796875 519.699219 545.796875 Z M 519.699219 545.796875 " fill-opacity="1" fill-rule="nonzero"/></g><path fill="#282928" d="M 739.078125 622.058594 L 739.078125 660.191406 C 749.597656 660.191406 758.152344 651.640625 758.152344 641.125 C 758.152344 630.609375 749.597656 622.058594 739.078125 622.058594 Z M 739.078125 622.058594 " fill-opacity="1" fill-rule="nonzero"/><path fill="#282928" d="M 716.710938 562.839844 C 728.144531 573.0625 736.023438 587.121094 738.3125 603.003906 L 739.078125 603.003906 C 742.5 603.003906 745.753906 603.605469 748.910156 604.453125 L 749.777344 603.144531 C 755.253906 594.929688 758.152344 585.367188 758.152344 575.5 C 758.152344 561.324219 751.960938 547.789062 741.488281 538.410156 C 734.890625 547.941406 726.535156 556.265625 716.710938 562.839844 Z M 716.710938 562.839844 " fill-opacity="1" fill-rule="nonzero"/><path fill="#282928" d="M 634.15625 698.320312 L 710.460938 698.320312 C 715.726562 698.320312 720 694.050781 720 688.789062 L 720 631.59375 C 720 626.332031 715.726562 622.058594 710.460938 622.058594 L 634.15625 622.058594 C 628.890625 622.058594 624.617188 626.332031 624.617188 631.59375 L 624.617188 688.789062 C 624.617188 694.050781 628.890625 698.320312 634.15625 698.320312 Z M 636.167969 663.449219 C 643.054688 649.6875 656.90625 641.125 672.308594 641.125 C 687.714844 641.125 701.5625 649.675781 708.449219 663.449219 L 709.449219 665.460938 L 692.386719 673.996094 L 691.386719 671.984375 C 687.75 664.710938 680.445312 660.199219 672.308594 660.199219 C 664.171875 660.199219 656.867188 664.71875 653.234375 671.984375 L 652.230469 673.996094 L 635.167969 665.460938 Z M 636.167969 663.449219 " fill-opacity="1" fill-rule="nonzero"/><path fill="#282928" d="M 636.007812 845.832031 L 659.691406 899.113281 L 680.179688 901.160156 C 674.921875 874.136719 657.039062 851.800781 633.023438 840.277344 C 634.089844 842.078125 635.148438 843.886719 636.007812 845.832031 Z M 636.007812 845.832031 " fill-opacity="1" fill-rule="nonzero"/><path fill="#282928" d="M 737.53125 946.175781 C 733.78125 933.898438 723.128906 924.613281 709.699219 923.269531 L 654.796875 917.785156 L 598.0625 942.980469 C 618.972656 957.207031 644.09375 965.242188 670.746094 965.242188 L 681.847656 965.242188 C 681.847656 954.726562 690.402344 946.175781 700.921875 946.175781 Z M 737.53125 946.175781 " fill-opacity="1" fill-rule="nonzero"/><path fill="#282928" d="M 618.570312 853.574219 C 612.6875 840.332031 599.515625 831.78125 585.015625 831.78125 C 564.777344 831.78125 548.304688 848.246094 548.304688 868.472656 L 548.304688 870.550781 C 548.304688 875.222656 549.191406 879.816406 550.925781 884.191406 C 557.945312 901.734375 568.488281 917.015625 581.488281 929.484375 L 640.632812 903.210938 Z M 618.570312 853.574219 " fill-opacity="1" fill-rule="nonzero"/><path fill="#282928" d="M 700.921875 965.242188 L 834.46875 965.242188 L 834.46875 984.308594 L 700.921875 984.308594 Z M 700.921875 965.242188 " fill-opacity="1" fill-rule="nonzero"/><path fill="#282928" d="M 722.792969 796.445312 L 687.4375 831.78125 L 722.792969 867.121094 L 736.28125 853.640625 L 714.410156 831.78125 L 736.28125 809.921875 Z M 722.792969 796.445312 " fill-opacity="1" fill-rule="nonzero"/><path fill="#282928" d="M 799.101562 809.921875 L 820.972656 831.78125 L 799.101562 853.640625 L 812.585938 867.121094 L 847.945312 831.78125 L 812.585938 796.445312 Z M 799.101562 809.921875 " fill-opacity="1" fill-rule="nonzero"/><path fill="#282928" d="M 739.769531 875.898438 L 777.917969 780.574219 L 795.632812 787.652344 L 757.480469 882.980469 Z M 739.769531 875.898438 " fill-opacity="1" fill-rule="nonzero"/><path fill="#282928" d="M 932.605469 660.191406 L 941.847656 660.191406 C 953.800781 660.191406 963.796875 668.292969 966.90625 679.257812 L 987.066406 679.257812 L 987.066406 526.730469 L 929.839844 526.730469 L 929.839844 660.410156 C 930.753906 660.324219 931.671875 660.191406 932.605469 660.191406 Z M 948.914062 545.796875 L 967.992188 545.796875 L 967.992188 564.863281 L 948.914062 564.863281 Z M 948.914062 583.929688 L 967.992188 583.929688 L 967.992188 602.992188 L 948.914062 602.992188 Z M 948.914062 622.058594 L 967.992188 622.058594 L 967.992188 641.125 L 948.914062 641.125 Z M 948.914062 622.058594 " fill-opacity="1" fill-rule="nonzero"/><path fill="#282928" d="M 834.457031 488.601562 L 853.535156 488.601562 L 853.535156 507.664062 L 872.609375 507.664062 L 872.609375 488.601562 L 891.6875 488.601562 L 891.6875 507.664062 L 987.066406 507.664062 L 987.066406 469.535156 L 815.382812 469.535156 L 815.382812 507.664062 L 834.457031 507.664062 Z M 834.457031 488.601562 " fill-opacity="1" fill-rule="nonzero"/><path fill="#282928" d="M 907.585938 678.722656 C 908.332031 676.292969 909.4375 674.082031 910.761719 672.039062 L 910.761719 526.730469 L 815.382812 526.730469 L 815.382812 679.257812 L 907.425781 679.257812 Z M 891.6875 641.125 L 834.457031 641.125 L 834.457031 622.058594 L 891.6875 622.058594 Z M 891.6875 602.992188 L 834.457031 602.992188 L 834.457031 583.929688 L 891.6875 583.929688 Z M 891.6875 564.863281 L 834.457031 564.863281 L 834.457031 545.796875 L 891.6875 545.796875 Z M 891.6875 564.863281 " fill-opacity="1" fill-rule="nonzero"/><path fill="#282928" d="M 886.15625 893.496094 L 948.609375 688.378906 C 948.8125 687.722656 948.914062 687.027344 948.914062 686.328125 C 948.914062 682.429688 945.75 679.265625 941.847656 679.265625 L 932.605469 679.265625 C 929.476562 679.265625 926.757812 681.277344 925.832031 684.28125 L 863.378906 889.398438 C 863.175781 890.054688 863.074219 890.75 863.074219 891.449219 C 863.074219 895.347656 866.238281 898.511719 870.140625 898.511719 L 879.382812 898.511719 C 882.511719 898.511719 885.230469 896.5 886.15625 893.496094 Z M 886.15625 893.496094 " fill-opacity="1" fill-rule="nonzero"/></svg>