<svg xmlns="http://www.w3.org/2000/svg" xmlns:xlink="http://www.w3.org/1999/xlink" width="1920" zoomAndPan="magnify" viewBox="0 0 1440 1439.999935" height="1920" preserveAspectRatio="xMidYMid meet" version="1.0"><defs><clipPath id="cba6705690"><path d="M 436.710938 433 L 784 433 L 784 640 L 436.710938 640 Z M 436.710938 433 " clip-rule="nonzero"/></clipPath><clipPath id="b74be2ffd2"><path d="M 436.710938 567 L 857 567 L 857 1006 L 436.710938 1006 Z M 436.710938 567 " clip-rule="nonzero"/></clipPath><clipPath id="c4e5464cc4"><path d="M 802 475 L 1002.960938 475 L 1002.960938 1006 L 802 1006 Z M 802 475 " clip-rule="nonzero"/></clipPath></defs><g clip-path="url(#cba6705690)"><path fill="#eff612" d="M 473.246094 630.964844 L 482.378906 630.964844 C 482.378906 600.683594 506.910156 576.136719 537.175781 576.136719 L 683.304688 576.136719 C 713.574219 576.136719 738.105469 600.683594 738.105469 630.964844 L 747.238281 630.964844 C 755.265625 630.964844 762.417969 634.484375 767.429688 639.984375 L 772.691406 632.101562 C 779.933594 621.199219 783.769531 608.53125 783.769531 595.457031 C 783.769531 575.304688 774.398438 556.035156 758.625 543.585938 C 763.136719 532.742188 765.503906 520.988281 765.503906 509.199219 L 765.503906 492.242188 L 708.796875 501.699219 L 699.050781 452.957031 L 644.253906 480.371094 L 634.972656 433.976562 L 573.707031 469 L 573.707031 444.65625 L 561.691406 448.667969 C 526.015625 460.558594 497.367188 488.355469 484.277344 523.5 L 480.1875 525.136719 C 453.773438 535.710938 436.710938 560.921875 436.710938 589.378906 C 436.710938 600.0625 439.234375 610.753906 444.011719 620.320312 L 453.546875 639.390625 C 458.53125 634.210938 465.5 630.964844 473.246094 630.964844 Z M 473.246094 630.964844 " fill-opacity="1" fill-rule="nonzero"/></g><path fill="#eff612" d="M 948.164062 576.136719 L 966.429688 576.136719 L 966.429688 649.242188 L 948.164062 649.242188 Z M 948.164062 576.136719 " fill-opacity="1" fill-rule="nonzero"/><path fill="#eff612" d="M 838.566406 576.136719 L 893.367188 576.136719 L 893.367188 649.242188 L 838.566406 649.242188 Z M 838.566406 576.136719 " fill-opacity="1" fill-rule="nonzero"/><path fill="#ffffff" d="M 664.082031 762.984375 L 647.742188 754.808594 C 643.667969 762.96875 635.464844 768.03125 626.351562 768.03125 L 582.839844 768.03125 L 582.839844 786.304688 L 626.351562 786.304688 C 642.417969 786.316406 656.875 777.371094 664.082031 762.984375 Z M 664.082031 762.984375 " fill-opacity="1" fill-rule="nonzero"/><path fill="#ffffff" d="M 518.910156 687.953125 C 522.390625 680.980469 529.386719 676.65625 537.175781 676.65625 C 544.96875 676.65625 551.960938 680.988281 555.441406 687.953125 L 556.402344 689.878906 L 572.742188 681.703125 L 571.78125 679.773438 C 565.1875 666.578125 551.925781 658.371094 537.175781 658.371094 C 522.425781 658.371094 509.164062 666.570312 502.570312 679.773438 L 501.613281 681.703125 L 517.953125 689.878906 Z M 518.910156 687.953125 " fill-opacity="1" fill-rule="nonzero"/><path fill="#ffffff" d="M 683.304688 658.382812 C 668.554688 658.382812 655.292969 666.578125 648.699219 679.78125 L 647.742188 681.710938 L 664.082031 689.890625 L 665.039062 687.953125 C 668.519531 680.980469 675.515625 676.65625 683.304688 676.65625 C 691.097656 676.65625 698.09375 680.988281 701.570312 687.953125 L 702.53125 689.878906 L 718.871094 681.703125 L 717.910156 679.773438 C 711.316406 666.578125 698.054688 658.382812 683.304688 658.382812 Z M 683.304688 658.382812 " fill-opacity="1" fill-rule="nonzero"/><g clip-path="url(#b74be2ffd2)"><path fill="#ffffff" d="M 838.566406 950.800781 L 764.652344 950.800781 C 760.707031 929.5 743.238281 912.898438 720.933594 910.648438 L 709.683594 909.527344 C 705.050781 875.996094 683.972656 847.953125 655.019531 833.46875 C 708.605469 814.855469 747.238281 763.953125 747.238281 704.070312 L 747.238281 694.933594 C 767.382812 694.933594 783.769531 678.539062 783.769531 658.382812 C 783.769531 638.222656 767.382812 621.828125 747.238281 621.828125 L 746.507812 621.828125 C 742.050781 590.886719 715.445312 567 683.304688 567 L 537.175781 567 C 505.039062 567 478.433594 590.886719 473.976562 621.828125 L 473.246094 621.828125 C 453.097656 621.828125 436.710938 638.222656 436.710938 658.382812 C 436.710938 678.539062 453.097656 694.933594 473.246094 694.933594 L 473.246094 704.070312 C 473.246094 764.574219 512.664062 815.949219 567.113281 834.082031 C 554.484375 843.859375 546.308594 859.128906 546.308594 876.308594 L 546.308594 878.300781 C 546.308594 885.109375 547.597656 891.789062 550.128906 898.148438 C 571.789062 952.335938 623.476562 987.355469 681.816406 987.355469 L 692.4375 987.355469 C 692.4375 997.433594 700.632812 1005.632812 710.703125 1005.632812 L 838.566406 1005.632812 C 848.640625 1005.632812 856.832031 997.433594 856.832031 987.355469 L 856.832031 969.078125 C 856.832031 959 848.640625 950.800781 838.566406 950.800781 Z M 690.847656 907.644531 L 671.230469 905.679688 L 648.554688 854.605469 C 647.722656 852.742188 646.71875 851.003906 645.695312 849.269531 C 668.691406 860.316406 685.816406 881.738281 690.847656 907.644531 Z M 719.835938 713.210938 L 646.773438 713.210938 C 641.730469 713.210938 637.640625 709.117188 637.640625 704.070312 L 637.640625 649.242188 C 637.640625 644.199219 641.730469 640.105469 646.773438 640.105469 L 719.835938 640.105469 C 724.878906 640.105469 728.972656 644.199219 728.972656 649.242188 L 728.972656 704.070312 C 728.972656 709.105469 724.878906 713.210938 719.835938 713.210938 Z M 765.503906 658.382812 C 765.503906 668.460938 757.3125 676.65625 747.238281 676.65625 L 747.238281 640.105469 C 757.3125 640.105469 765.503906 648.300781 765.503906 658.382812 Z M 537.175781 585.277344 L 683.304688 585.277344 C 705.847656 585.277344 724.515625 601.742188 728.195312 623.273438 C 725.546875 622.414062 722.769531 621.828125 719.835938 621.828125 L 646.773438 621.828125 C 631.667969 621.828125 619.375 634.128906 619.375 649.242188 L 619.375 658.382812 L 601.109375 658.382812 L 601.109375 649.242188 C 601.109375 634.128906 588.816406 621.828125 573.707031 621.828125 L 500.644531 621.828125 C 497.710938 621.828125 494.9375 622.414062 492.289062 623.273438 C 495.96875 601.742188 514.636719 585.277344 537.175781 585.277344 Z M 491.511719 704.070312 L 491.511719 649.242188 C 491.511719 644.199219 495.601562 640.105469 500.644531 640.105469 L 573.707031 640.105469 C 578.75 640.105469 582.839844 644.199219 582.839844 649.242188 L 582.839844 704.070312 C 582.839844 709.117188 578.75 713.210938 573.707031 713.210938 L 500.644531 713.210938 C 495.601562 713.210938 491.511719 709.105469 491.511719 704.070312 Z M 454.980469 658.382812 C 454.980469 648.300781 463.171875 640.105469 473.246094 640.105469 L 473.246094 676.65625 C 463.171875 676.65625 454.980469 668.453125 454.980469 658.382812 Z M 494.644531 730.773438 C 496.578125 731.210938 498.570312 731.476562 500.644531 731.476562 L 573.707031 731.476562 C 588.816406 731.476562 601.109375 719.175781 601.109375 704.0625 L 601.109375 676.648438 L 619.375 676.648438 L 619.375 704.0625 C 619.375 719.175781 631.667969 731.476562 646.773438 731.476562 L 719.835938 731.476562 C 721.902344 731.476562 723.902344 731.203125 725.839844 730.773438 C 713.671875 783.445312 666.519531 822.867188 610.242188 822.867188 C 553.964844 822.867188 506.808594 783.445312 494.644531 730.773438 Z M 567.085938 891.378906 C 565.425781 887.183594 564.574219 882.777344 564.574219 878.300781 L 564.574219 876.308594 C 564.574219 856.917969 580.347656 841.136719 599.730469 841.136719 C 613.609375 841.136719 626.214844 849.332031 631.859375 862.023438 L 652.992188 909.597656 L 596.359375 934.785156 C 583.910156 922.839844 573.816406 908.191406 567.085938 891.378906 Z M 692.4375 969.078125 L 681.816406 969.078125 C 656.300781 969.078125 632.242188 961.375 612.222656 947.742188 L 666.546875 923.589844 L 719.117188 928.84375 C 731.976562 930.132812 742.175781 939.03125 745.765625 950.800781 L 710.703125 950.800781 C 700.632812 950.800781 692.4375 959 692.4375 969.078125 Z M 710.703125 987.355469 L 710.703125 969.078125 L 838.566406 969.078125 L 838.585938 987.355469 Z M 710.703125 987.355469 " fill-opacity="1" fill-rule="nonzero"/></g><path fill="#ffffff" d="M 731.648438 807.269531 L 697.789062 841.144531 L 731.648438 875.019531 L 744.5625 862.097656 L 723.617188 841.144531 L 744.5625 820.191406 Z M 731.648438 807.269531 " fill-opacity="1" fill-rule="nonzero"/><path fill="#ffffff" d="M 817.625 875.019531 L 851.480469 841.144531 L 817.625 807.269531 L 804.710938 820.191406 L 825.652344 841.144531 L 804.710938 862.097656 Z M 817.625 875.019531 " fill-opacity="1" fill-rule="nonzero"/><path fill="#ffffff" d="M 747.898438 883.433594 L 784.429688 792.054688 L 801.390625 798.84375 L 764.859375 890.222656 Z M 747.898438 883.433594 " fill-opacity="1" fill-rule="nonzero"/><g clip-path="url(#c4e5464cc4)"><path fill="#ffffff" d="M 984.695312 713.210938 C 994.769531 713.210938 1002.960938 705.011719 1002.960938 694.933594 L 1002.960938 493.894531 C 1002.960938 483.816406 994.769531 475.617188 984.695312 475.617188 L 820.300781 475.617188 C 810.226562 475.617188 802.035156 483.816406 802.035156 493.894531 L 802.035156 694.933594 C 802.035156 705.011719 810.226562 713.210938 820.300781 713.210938 L 902.875 713.210938 L 848.777344 891.058594 C 848.066406 893.40625 847.699219 895.863281 847.699219 898.332031 C 847.699219 912.148438 858.925781 923.378906 872.734375 923.378906 L 881.585938 923.378906 C 892.671875 923.378906 902.308594 916.25 905.539062 905.625 L 922.371094 850.273438 L 955.625 850.273438 L 983.992188 949.585938 C 984.113281 949.988281 984.203125 950.390625 984.285156 950.792969 L 893.367188 950.792969 C 883.292969 950.792969 875.101562 958.992188 875.101562 969.070312 L 875.101562 987.347656 C 875.101562 997.425781 883.292969 1005.621094 893.367188 1005.621094 L 984.695312 1005.621094 C 994.769531 1005.621094 1002.960938 997.425781 1002.960938 987.347656 L 1002.960938 954.632812 C 1002.960938 951.257812 1002.488281 947.886719 1001.566406 944.589844 L 949.324219 761.671875 L 964.066406 713.199219 L 984.695312 713.199219 Z M 984.695312 987.355469 L 893.367188 987.355469 L 893.367188 969.078125 L 984.695312 969.078125 Z M 965.378906 694.933594 C 962.402344 684.425781 952.839844 676.65625 941.386719 676.65625 L 932.546875 676.65625 C 931.644531 676.65625 930.773438 676.777344 929.898438 676.867188 L 929.898438 548.722656 L 984.695312 548.722656 L 984.695312 694.933594 Z M 984.695312 493.894531 L 984.695312 530.445312 L 893.367188 530.445312 L 893.367188 512.171875 L 875.101562 512.171875 L 875.101562 530.445312 L 856.832031 530.445312 L 856.832031 512.171875 L 838.566406 512.171875 L 838.566406 530.445312 L 820.300781 530.445312 L 820.300781 493.894531 Z M 820.300781 694.933594 L 820.300781 548.722656 L 911.632812 548.722656 L 911.632812 688.015625 C 910.363281 689.972656 909.304688 692.09375 908.589844 694.421875 L 908.433594 694.941406 L 820.300781 694.941406 Z M 888.070312 900.296875 C 887.183594 903.175781 884.578125 905.101562 881.585938 905.101562 L 872.734375 905.101562 C 869 905.101562 865.964844 902.070312 865.964844 898.332031 C 865.964844 897.664062 866.066406 896.996094 866.257812 896.355469 L 926.0625 699.730469 C 926.949219 696.851562 929.550781 694.925781 932.546875 694.925781 L 941.398438 694.925781 C 945.132812 694.925781 948.164062 697.957031 948.164062 701.695312 C 948.164062 702.363281 948.0625 703.03125 947.871094 703.671875 Z M 950.410156 832.007812 L 927.933594 832.007812 L 939.523438 793.898438 Z M 950.410156 832.007812 " fill-opacity="1" fill-rule="nonzero"/></g><path fill="#ffffff" d="M 948.164062 567 L 966.429688 567 L 966.429688 585.277344 L 948.164062 585.277344 Z M 948.164062 567 " fill-opacity="1" fill-rule="nonzero"/><path fill="#ffffff" d="M 948.164062 603.550781 L 966.429688 603.550781 L 966.429688 621.828125 L 948.164062 621.828125 Z M 948.164062 603.550781 " fill-opacity="1" fill-rule="nonzero"/><path fill="#ffffff" d="M 838.566406 567 L 893.367188 567 L 893.367188 585.277344 L 838.566406 585.277344 Z M 838.566406 567 " fill-opacity="1" fill-rule="nonzero"/><path fill="#ffffff" d="M 838.566406 603.550781 L 893.367188 603.550781 L 893.367188 621.828125 L 838.566406 621.828125 Z M 838.566406 603.550781 " fill-opacity="1" fill-rule="nonzero"/><path fill="#ffffff" d="M 838.566406 640.105469 L 893.367188 640.105469 L 893.367188 658.382812 L 838.566406 658.382812 Z M 838.566406 640.105469 " fill-opacity="1" fill-rule="nonzero"/><path fill="#ffffff" d="M 948.164062 640.105469 L 966.429688 640.105469 L 966.429688 658.382812 L 948.164062 658.382812 Z M 948.164062 640.105469 " fill-opacity="1" fill-rule="nonzero"/></svg>